<mxfile host="Electron" agent="Mozilla/5.0 (Windows NT 10.0; Win64; x64) AppleWebKit/537.36 (KHTML, like Gecko) draw.io/24.7.5 Chrome/126.0.6478.183 Electron/31.3.0 Safari/537.36" version="24.7.5">
  <diagram name="Σελίδα-1" id="hULoHhYP4sNX9wOPnO7w">
    <mxGraphModel dx="1347" dy="597" grid="1" gridSize="10" guides="1" tooltips="1" connect="1" arrows="1" fold="1" page="1" pageScale="1" pageWidth="827" pageHeight="1169" math="1" shadow="0">
      <root>
        <mxCell id="0" />
        <mxCell id="1" parent="0" />
        <mxCell id="z_v_II5JxRvTQDrA2o3a-71" value="" style="group" vertex="1" connectable="0" parent="1">
          <mxGeometry x="270" y="90" width="510" height="630" as="geometry" />
        </mxCell>
        <mxCell id="z_v_II5JxRvTQDrA2o3a-7" value="" style="rounded=0;whiteSpace=wrap;html=1;" vertex="1" parent="z_v_II5JxRvTQDrA2o3a-71">
          <mxGeometry width="510" height="630" as="geometry" />
        </mxCell>
        <mxCell id="z_v_II5JxRvTQDrA2o3a-9" style="edgeStyle=orthogonalEdgeStyle;rounded=0;orthogonalLoop=1;jettySize=auto;html=1;entryX=0.5;entryY=0;entryDx=0;entryDy=0;endArrow=none;endFill=0;dashed=1;" edge="1" parent="z_v_II5JxRvTQDrA2o3a-71" source="z_v_II5JxRvTQDrA2o3a-1" target="z_v_II5JxRvTQDrA2o3a-2">
          <mxGeometry relative="1" as="geometry" />
        </mxCell>
        <mxCell id="z_v_II5JxRvTQDrA2o3a-10" style="edgeStyle=orthogonalEdgeStyle;rounded=0;orthogonalLoop=1;jettySize=auto;html=1;entryX=0.5;entryY=0;entryDx=0;entryDy=0;endArrow=none;endFill=0;dashed=1;" edge="1" parent="z_v_II5JxRvTQDrA2o3a-71" source="z_v_II5JxRvTQDrA2o3a-1" target="z_v_II5JxRvTQDrA2o3a-3">
          <mxGeometry relative="1" as="geometry" />
        </mxCell>
        <mxCell id="z_v_II5JxRvTQDrA2o3a-11" style="edgeStyle=orthogonalEdgeStyle;rounded=0;orthogonalLoop=1;jettySize=auto;html=1;endArrow=none;endFill=0;dashed=1;" edge="1" parent="z_v_II5JxRvTQDrA2o3a-71" source="z_v_II5JxRvTQDrA2o3a-1" target="z_v_II5JxRvTQDrA2o3a-8">
          <mxGeometry relative="1" as="geometry" />
        </mxCell>
        <mxCell id="z_v_II5JxRvTQDrA2o3a-39" style="edgeStyle=orthogonalEdgeStyle;rounded=0;orthogonalLoop=1;jettySize=auto;html=1;entryX=0.5;entryY=0;entryDx=0;entryDy=0;endArrow=none;endFill=0;dashed=1;" edge="1" parent="z_v_II5JxRvTQDrA2o3a-71" source="z_v_II5JxRvTQDrA2o3a-1" target="z_v_II5JxRvTQDrA2o3a-31">
          <mxGeometry relative="1" as="geometry" />
        </mxCell>
        <mxCell id="z_v_II5JxRvTQDrA2o3a-40" style="edgeStyle=orthogonalEdgeStyle;rounded=0;orthogonalLoop=1;jettySize=auto;html=1;entryX=0.5;entryY=0;entryDx=0;entryDy=0;" edge="1" parent="z_v_II5JxRvTQDrA2o3a-71" source="z_v_II5JxRvTQDrA2o3a-1" target="z_v_II5JxRvTQDrA2o3a-35">
          <mxGeometry relative="1" as="geometry" />
        </mxCell>
        <mxCell id="z_v_II5JxRvTQDrA2o3a-1" value="$$A_{m}$$" style="rounded=0;whiteSpace=wrap;html=1;" vertex="1" parent="z_v_II5JxRvTQDrA2o3a-71">
          <mxGeometry x="225" y="10" width="60" height="40" as="geometry" />
        </mxCell>
        <mxCell id="z_v_II5JxRvTQDrA2o3a-16" style="edgeStyle=orthogonalEdgeStyle;rounded=0;orthogonalLoop=1;jettySize=auto;html=1;endArrow=none;endFill=0;dashed=1;" edge="1" parent="z_v_II5JxRvTQDrA2o3a-71" source="z_v_II5JxRvTQDrA2o3a-2">
          <mxGeometry relative="1" as="geometry">
            <mxPoint x="70" y="289" as="targetPoint" />
            <Array as="points">
              <mxPoint x="70" y="289" />
            </Array>
          </mxGeometry>
        </mxCell>
        <mxCell id="z_v_II5JxRvTQDrA2o3a-2" value="$$A_{t_1}$$" style="rounded=0;whiteSpace=wrap;html=1;" vertex="1" parent="z_v_II5JxRvTQDrA2o3a-71">
          <mxGeometry x="40" y="180" width="60" height="40" as="geometry" />
        </mxCell>
        <mxCell id="z_v_II5JxRvTQDrA2o3a-42" style="edgeStyle=orthogonalEdgeStyle;rounded=0;orthogonalLoop=1;jettySize=auto;html=1;entryX=0;entryY=0.5;entryDx=0;entryDy=0;" edge="1" parent="z_v_II5JxRvTQDrA2o3a-71" source="z_v_II5JxRvTQDrA2o3a-3" target="z_v_II5JxRvTQDrA2o3a-31">
          <mxGeometry relative="1" as="geometry" />
        </mxCell>
        <mxCell id="z_v_II5JxRvTQDrA2o3a-3" value="$$A_{t_i}$$" style="rounded=0;whiteSpace=wrap;html=1;" vertex="1" parent="z_v_II5JxRvTQDrA2o3a-71">
          <mxGeometry x="160" y="180" width="60" height="40" as="geometry" />
        </mxCell>
        <mxCell id="z_v_II5JxRvTQDrA2o3a-24" style="edgeStyle=orthogonalEdgeStyle;rounded=0;orthogonalLoop=1;jettySize=auto;html=1;entryX=0.5;entryY=0;entryDx=0;entryDy=0;" edge="1" parent="z_v_II5JxRvTQDrA2o3a-71" source="z_v_II5JxRvTQDrA2o3a-5" target="z_v_II5JxRvTQDrA2o3a-20">
          <mxGeometry relative="1" as="geometry" />
        </mxCell>
        <mxCell id="z_v_II5JxRvTQDrA2o3a-5" value="&lt;b&gt;Tool pool&lt;/b&gt;" style="rounded=0;whiteSpace=wrap;html=1;" vertex="1" parent="z_v_II5JxRvTQDrA2o3a-71">
          <mxGeometry x="40" y="290" width="430" height="40" as="geometry" />
        </mxCell>
        <mxCell id="z_v_II5JxRvTQDrA2o3a-8" value="$$A_{t_n}$$" style="rounded=0;whiteSpace=wrap;html=1;" vertex="1" parent="z_v_II5JxRvTQDrA2o3a-71">
          <mxGeometry x="410" y="180" width="60" height="40" as="geometry" />
        </mxCell>
        <mxCell id="z_v_II5JxRvTQDrA2o3a-17" style="edgeStyle=orthogonalEdgeStyle;rounded=0;orthogonalLoop=1;jettySize=auto;html=1;entryX=0.101;entryY=-0.007;entryDx=0;entryDy=0;entryPerimeter=0;endArrow=none;endFill=0;dashed=1;" edge="1" parent="z_v_II5JxRvTQDrA2o3a-71">
          <mxGeometry relative="1" as="geometry">
            <mxPoint x="189.70999999999998" y="220" as="sourcePoint" />
            <mxPoint x="189.70999999999998" y="290" as="targetPoint" />
          </mxGeometry>
        </mxCell>
        <mxCell id="z_v_II5JxRvTQDrA2o3a-18" style="edgeStyle=orthogonalEdgeStyle;rounded=0;orthogonalLoop=1;jettySize=auto;html=1;entryX=0.101;entryY=-0.007;entryDx=0;entryDy=0;entryPerimeter=0;endArrow=none;endFill=0;dashed=1;" edge="1" parent="z_v_II5JxRvTQDrA2o3a-71">
          <mxGeometry relative="1" as="geometry">
            <mxPoint x="309.71000000000004" y="220" as="sourcePoint" />
            <mxPoint x="309.71000000000004" y="290" as="targetPoint" />
          </mxGeometry>
        </mxCell>
        <mxCell id="z_v_II5JxRvTQDrA2o3a-20" value="" style="rounded=0;whiteSpace=wrap;html=1;" vertex="1" parent="z_v_II5JxRvTQDrA2o3a-71">
          <mxGeometry x="100" y="420" width="310" height="175" as="geometry" />
        </mxCell>
        <mxCell id="z_v_II5JxRvTQDrA2o3a-21" value="Agent Creation" style="rounded=0;whiteSpace=wrap;html=1;" vertex="1" parent="z_v_II5JxRvTQDrA2o3a-71">
          <mxGeometry x="117" y="475" width="120" height="30" as="geometry" />
        </mxCell>
        <mxCell id="z_v_II5JxRvTQDrA2o3a-22" value="Agent Deletion" style="rounded=0;whiteSpace=wrap;html=1;" vertex="1" parent="z_v_II5JxRvTQDrA2o3a-71">
          <mxGeometry x="117" y="515" width="120" height="30" as="geometry" />
        </mxCell>
        <mxCell id="z_v_II5JxRvTQDrA2o3a-23" value="Agent Edit" style="rounded=0;whiteSpace=wrap;html=1;" vertex="1" parent="z_v_II5JxRvTQDrA2o3a-71">
          <mxGeometry x="117" y="555" width="120" height="30" as="geometry" />
        </mxCell>
        <mxCell id="z_v_II5JxRvTQDrA2o3a-25" value="" style="endArrow=none;html=1;rounded=0;exitX=0.5;exitY=1;exitDx=0;exitDy=0;entryX=0.5;entryY=0;entryDx=0;entryDy=0;" edge="1" parent="z_v_II5JxRvTQDrA2o3a-71" source="z_v_II5JxRvTQDrA2o3a-20" target="z_v_II5JxRvTQDrA2o3a-20">
          <mxGeometry width="50" height="50" relative="1" as="geometry">
            <mxPoint x="260" y="600" as="sourcePoint" />
            <mxPoint x="310" y="550" as="targetPoint" />
          </mxGeometry>
        </mxCell>
        <mxCell id="z_v_II5JxRvTQDrA2o3a-26" value="Neccessary Tools" style="text;html=1;align=center;verticalAlign=middle;resizable=0;points=[];autosize=1;strokeColor=none;fillColor=none;fontStyle=1" vertex="1" parent="z_v_II5JxRvTQDrA2o3a-71">
          <mxGeometry x="117" y="430" width="120" height="30" as="geometry" />
        </mxCell>
        <mxCell id="z_v_II5JxRvTQDrA2o3a-27" value="Other Tools" style="text;html=1;align=center;verticalAlign=middle;resizable=0;points=[];autosize=1;strokeColor=none;fillColor=none;fontStyle=1" vertex="1" parent="z_v_II5JxRvTQDrA2o3a-71">
          <mxGeometry x="290" y="492.5" width="80" height="30" as="geometry" />
        </mxCell>
        <mxCell id="z_v_II5JxRvTQDrA2o3a-28" value="$$A$$" style="text;html=1;align=center;verticalAlign=middle;resizable=0;points=[];autosize=1;strokeColor=none;fillColor=none;" vertex="1" parent="z_v_II5JxRvTQDrA2o3a-71">
          <mxGeometry x="-10" width="60" height="30" as="geometry" />
        </mxCell>
        <mxCell id="z_v_II5JxRvTQDrA2o3a-29" value="$$...$$" style="text;html=1;align=center;verticalAlign=middle;resizable=0;points=[];autosize=1;strokeColor=none;fillColor=none;" vertex="1" parent="z_v_II5JxRvTQDrA2o3a-71">
          <mxGeometry x="225" y="170" width="60" height="30" as="geometry" />
        </mxCell>
        <mxCell id="z_v_II5JxRvTQDrA2o3a-30" value="$$...$$" style="text;html=1;align=center;verticalAlign=middle;resizable=0;points=[];autosize=1;strokeColor=none;fillColor=none;" vertex="1" parent="z_v_II5JxRvTQDrA2o3a-71">
          <mxGeometry x="100" y="190" width="60" height="30" as="geometry" />
        </mxCell>
        <mxCell id="z_v_II5JxRvTQDrA2o3a-31" value="$$A_{t_j}$$" style="rounded=0;whiteSpace=wrap;html=1;" vertex="1" parent="z_v_II5JxRvTQDrA2o3a-71">
          <mxGeometry x="290" y="180" width="60" height="40" as="geometry" />
        </mxCell>
        <mxCell id="z_v_II5JxRvTQDrA2o3a-32" value="$$...$$" style="text;html=1;align=center;verticalAlign=middle;resizable=0;points=[];autosize=1;strokeColor=none;fillColor=none;" vertex="1" parent="z_v_II5JxRvTQDrA2o3a-71">
          <mxGeometry x="350" y="185" width="60" height="30" as="geometry" />
        </mxCell>
        <mxCell id="z_v_II5JxRvTQDrA2o3a-33" style="edgeStyle=orthogonalEdgeStyle;rounded=0;orthogonalLoop=1;jettySize=auto;html=1;entryX=0.101;entryY=-0.007;entryDx=0;entryDy=0;entryPerimeter=0;endArrow=none;endFill=0;dashed=1;" edge="1" parent="z_v_II5JxRvTQDrA2o3a-71">
          <mxGeometry relative="1" as="geometry">
            <mxPoint x="439.65999999999997" y="220" as="sourcePoint" />
            <mxPoint x="439.65999999999997" y="290" as="targetPoint" />
          </mxGeometry>
        </mxCell>
        <mxCell id="z_v_II5JxRvTQDrA2o3a-37" style="edgeStyle=orthogonalEdgeStyle;rounded=0;orthogonalLoop=1;jettySize=auto;html=1;entryX=0.75;entryY=0;entryDx=0;entryDy=0;endArrow=none;endFill=0;dashed=1;" edge="1" parent="z_v_II5JxRvTQDrA2o3a-71" source="z_v_II5JxRvTQDrA2o3a-35" target="z_v_II5JxRvTQDrA2o3a-3">
          <mxGeometry relative="1" as="geometry">
            <Array as="points">
              <mxPoint x="255" y="160" />
              <mxPoint x="205" y="160" />
            </Array>
          </mxGeometry>
        </mxCell>
        <mxCell id="z_v_II5JxRvTQDrA2o3a-38" style="edgeStyle=orthogonalEdgeStyle;rounded=0;orthogonalLoop=1;jettySize=auto;html=1;entryX=0.25;entryY=0;entryDx=0;entryDy=0;exitX=0.5;exitY=1;exitDx=0;exitDy=0;endArrow=none;endFill=0;dashed=1;" edge="1" parent="z_v_II5JxRvTQDrA2o3a-71" source="z_v_II5JxRvTQDrA2o3a-35" target="z_v_II5JxRvTQDrA2o3a-31">
          <mxGeometry relative="1" as="geometry" />
        </mxCell>
        <mxCell id="z_v_II5JxRvTQDrA2o3a-35" value="$$A_{i,j}$$" style="rounded=0;whiteSpace=wrap;html=1;" vertex="1" parent="z_v_II5JxRvTQDrA2o3a-71">
          <mxGeometry x="225" y="100" width="60" height="40" as="geometry" />
        </mxCell>
        <mxCell id="z_v_II5JxRvTQDrA2o3a-50" value="" style="endArrow=classic;html=1;rounded=0;entryX=0;entryY=0;entryDx=0;entryDy=0;" edge="1" parent="z_v_II5JxRvTQDrA2o3a-71" target="z_v_II5JxRvTQDrA2o3a-2">
          <mxGeometry width="50" height="50" relative="1" as="geometry">
            <mxPoint x="30" y="160" as="sourcePoint" />
            <mxPoint x="-10" y="200" as="targetPoint" />
          </mxGeometry>
        </mxCell>
        <mxCell id="z_v_II5JxRvTQDrA2o3a-51" value="" style="endArrow=classic;html=1;rounded=0;entryX=0;entryY=0;entryDx=0;entryDy=0;" edge="1" parent="z_v_II5JxRvTQDrA2o3a-71">
          <mxGeometry width="50" height="50" relative="1" as="geometry">
            <mxPoint x="100" y="220" as="sourcePoint" />
            <mxPoint x="110" y="240" as="targetPoint" />
          </mxGeometry>
        </mxCell>
        <mxCell id="z_v_II5JxRvTQDrA2o3a-53" value="$$Inp(A_{t_1})$$" style="text;html=1;align=center;verticalAlign=middle;resizable=0;points=[];autosize=1;strokeColor=none;fillColor=none;fontSize=6;" vertex="1" parent="z_v_II5JxRvTQDrA2o3a-71">
          <mxGeometry y="146" width="70" height="20" as="geometry" />
        </mxCell>
        <mxCell id="z_v_II5JxRvTQDrA2o3a-54" value="$$Out(A_{t_1})$$" style="text;html=1;align=center;verticalAlign=middle;resizable=0;points=[];autosize=1;strokeColor=none;fillColor=none;fontSize=6;" vertex="1" parent="z_v_II5JxRvTQDrA2o3a-71">
          <mxGeometry x="90" y="240" width="70" height="20" as="geometry" />
        </mxCell>
        <mxCell id="z_v_II5JxRvTQDrA2o3a-57" value="" style="endArrow=classic;html=1;rounded=0;" edge="1" parent="z_v_II5JxRvTQDrA2o3a-71">
          <mxGeometry width="50" height="50" relative="1" as="geometry">
            <mxPoint x="280" y="240" as="sourcePoint" />
            <mxPoint x="290" y="220" as="targetPoint" />
          </mxGeometry>
        </mxCell>
        <mxCell id="z_v_II5JxRvTQDrA2o3a-58" value="" style="endArrow=classic;html=1;rounded=0;entryX=0;entryY=0;entryDx=0;entryDy=0;" edge="1" parent="z_v_II5JxRvTQDrA2o3a-71">
          <mxGeometry width="50" height="50" relative="1" as="geometry">
            <mxPoint x="220" y="220" as="sourcePoint" />
            <mxPoint x="230" y="240" as="targetPoint" />
          </mxGeometry>
        </mxCell>
        <mxCell id="z_v_II5JxRvTQDrA2o3a-59" value="$$Inp(A_{t_j})$$" style="text;html=1;align=center;verticalAlign=middle;resizable=0;points=[];autosize=1;strokeColor=none;fillColor=none;fontSize=6;" vertex="1" parent="z_v_II5JxRvTQDrA2o3a-71">
          <mxGeometry x="242" y="240" width="70" height="20" as="geometry" />
        </mxCell>
        <mxCell id="z_v_II5JxRvTQDrA2o3a-60" value="$$Out(A_{t_i})$$" style="text;html=1;align=center;verticalAlign=middle;resizable=0;points=[];autosize=1;strokeColor=none;fillColor=none;fontSize=6;" vertex="1" parent="z_v_II5JxRvTQDrA2o3a-71">
          <mxGeometry x="190" y="240" width="70" height="20" as="geometry" />
        </mxCell>
        <mxCell id="z_v_II5JxRvTQDrA2o3a-69" value="&lt;span style=&quot;color: rgb(0, 0, 0); font-family: Helvetica; font-size: 6px; font-style: normal; font-variant-ligatures: normal; font-variant-caps: normal; letter-spacing: normal; orphans: 2; text-indent: 0px; text-transform: none; widows: 2; word-spacing: 0px; -webkit-text-stroke-width: 0px; white-space: nowrap; background-color: rgb(251, 251, 251); text-decoration-thickness: initial; text-decoration-style: initial; text-decoration-color: initial; float: none; display: inline !important;&quot;&gt;$$\cap$$&lt;/span&gt;" style="text;whiteSpace=wrap;html=1;align=center;spacing=0;fontStyle=1" vertex="1" parent="z_v_II5JxRvTQDrA2o3a-71">
          <mxGeometry x="239.5" y="234" width="25" height="20" as="geometry" />
        </mxCell>
        <mxCell id="z_v_II5JxRvTQDrA2o3a-70" value="" style="endArrow=none;html=1;rounded=0;entryX=0.459;entryY=1.021;entryDx=0;entryDy=0;entryPerimeter=0;exitX=0.5;exitY=0;exitDx=0;exitDy=0;shape=link;strokeWidth=1;" edge="1" parent="z_v_II5JxRvTQDrA2o3a-71" source="z_v_II5JxRvTQDrA2o3a-69" target="z_v_II5JxRvTQDrA2o3a-29">
          <mxGeometry width="50" height="50" relative="1" as="geometry">
            <mxPoint x="230" y="250" as="sourcePoint" />
            <mxPoint x="280" y="200" as="targetPoint" />
          </mxGeometry>
        </mxCell>
      </root>
    </mxGraphModel>
  </diagram>
</mxfile>
